<svg width="125" height="37" viewBox="0 0 125 37" fill="none" xmlns="http://www.w3.org/2000/svg">
<rect width="38" height="37" rx="6" fill="black"/>
<path d="M11.0123 18.8765H12.4073V11.9765H11.0123V11.6765H14.3273V13.3115C14.5373 12.7315 14.8523 12.2915 15.2723 11.9915C15.7023 11.6815 16.2173 11.5265 16.8173 11.5265C17.4073 11.5265 17.9073 11.6615 18.3173 11.9315C18.7273 12.2015 19.0423 12.5965 19.2623 13.1165C19.4823 13.6365 19.5923 14.2665 19.5923 15.0065V18.8765H20.9123V19.1765H16.3673V18.8765H17.6573V15.0065C17.6573 14.0065 17.5273 13.2615 17.2673 12.7715C17.0073 12.2815 16.6173 12.0365 16.0973 12.0365C15.7573 12.0365 15.4523 12.1715 15.1823 12.4415C14.9123 12.7015 14.7023 13.0815 14.5523 13.5815C14.4023 14.0715 14.3273 14.6365 14.3273 15.2765V18.8765H15.5873V19.1765H11.0123V18.8765Z" fill="white"/>
<path d="M20.4605 26.5823H21.8555V19.6823H20.4605V19.3823H23.7755V21.0173C23.9855 20.4373 24.3005 19.9973 24.7205 19.6973C25.1505 19.3873 25.6655 19.2323 26.2655 19.2323C26.8555 19.2323 27.3555 19.3673 27.7655 19.6373C28.1755 19.9073 28.4905 20.3023 28.7105 20.8223C28.9305 21.3423 29.0405 21.9723 29.0405 22.7123V26.5823H30.3605V26.8823H25.8155V26.5823H27.1055V22.7123C27.1055 21.7123 26.9755 20.9673 26.7155 20.4773C26.4555 19.9873 26.0655 19.7423 25.5455 19.7423C25.2055 19.7423 24.9005 19.8773 24.6305 20.1473C24.3605 20.4073 24.1505 20.7873 24.0005 21.2873C23.8505 21.7773 23.7755 22.3423 23.7755 22.9823V26.5823H25.0355V26.8823H20.4605V26.5823Z" fill="white"/>
<path d="M45.4431 15.0773V24.2133H47.8111V24.5333H43.4111V24.2133H45.1071V14.6453L44.3071 13.6533H42.9311V13.3333H47.1231L53.2671 21.3013V13.6533H51.2191V13.3333H55.2991V13.6533H53.6031V25.2053H53.3471L45.4431 15.0773ZM60.6848 24.6933C59.8101 24.6933 59.0314 24.5173 58.3488 24.1653C57.6768 23.8027 57.1488 23.3067 56.7648 22.6773C56.3808 22.048 56.1888 21.3333 56.1888 20.5333C56.1888 19.7333 56.3808 19.0187 56.7648 18.3893C57.1488 17.76 57.6768 17.2693 58.3488 16.9173C59.0314 16.5547 59.8101 16.3733 60.6848 16.3733C61.5488 16.3733 62.3221 16.5547 63.0048 16.9173C63.6874 17.2693 64.2208 17.76 64.6048 18.3893C64.9888 19.0187 65.1808 19.7333 65.1808 20.5333C65.1808 21.3333 64.9888 22.048 64.6048 22.6773C64.2208 23.3067 63.6874 23.8027 63.0048 24.1653C62.3221 24.5173 61.5488 24.6933 60.6848 24.6933ZM60.6848 24.4213C61.1754 24.4213 61.5914 24.2773 61.9328 23.9893C62.2848 23.7013 62.5514 23.264 62.7328 22.6773C62.9141 22.0907 63.0048 21.376 63.0048 20.5333C63.0048 19.68 62.9141 18.9653 62.7328 18.3893C62.5514 17.8027 62.2848 17.3653 61.9328 17.0773C61.5914 16.7787 61.1754 16.6293 60.6848 16.6293C60.1941 16.6293 59.7728 16.7787 59.4208 17.0773C59.0688 17.3653 58.8021 17.8027 58.6208 18.3893C58.4394 18.9653 58.3488 19.68 58.3488 20.5333C58.3488 21.376 58.4394 22.0907 58.6208 22.6773C58.8021 23.264 59.0688 23.7013 59.4208 23.9893C59.7728 24.2773 60.1941 24.4213 60.6848 24.4213ZM71.1066 24.6933C70.232 24.6933 69.4533 24.5173 68.7706 24.1653C68.0986 23.8027 67.5706 23.3067 67.1866 22.6773C66.8026 22.048 66.6106 21.3333 66.6106 20.5333C66.6106 19.7333 66.8026 19.0187 67.1866 18.3893C67.5706 17.76 68.0986 17.2693 68.7706 16.9173C69.4533 16.5547 70.232 16.3733 71.1066 16.3733C71.9706 16.3733 72.744 16.5547 73.4266 16.9173C74.1093 17.2693 74.6426 17.76 75.0266 18.3893C75.4106 19.0187 75.6026 19.7333 75.6026 20.5333C75.6026 21.3333 75.4106 22.048 75.0266 22.6773C74.6426 23.3067 74.1093 23.8027 73.4266 24.1653C72.744 24.5173 71.9706 24.6933 71.1066 24.6933ZM71.1066 24.4213C71.5973 24.4213 72.0133 24.2773 72.3546 23.9893C72.7066 23.7013 72.9733 23.264 73.1546 22.6773C73.336 22.0907 73.4266 21.376 73.4266 20.5333C73.4266 19.68 73.336 18.9653 73.1546 18.3893C72.9733 17.8027 72.7066 17.3653 72.3546 17.0773C72.0133 16.7787 71.5973 16.6293 71.1066 16.6293C70.616 16.6293 70.1946 16.7787 69.8426 17.0773C69.4906 17.3653 69.224 17.8027 69.0426 18.3893C68.8613 18.9653 68.7706 19.68 68.7706 20.5333C68.7706 21.376 68.8613 22.0907 69.0426 22.6773C69.224 23.264 69.4906 23.7013 69.8426 23.9893C70.1946 24.2773 70.616 24.4213 71.1066 24.4213ZM76.4256 24.2133H77.9136V13.6533H76.4256V13.3333H79.9616V20.3733H80.7456L83.9616 16.8533H82.1056V16.5333H85.8176V16.8533H84.3936L82.2336 19.2213L85.6256 24.2133H87.0176V24.5333H81.8816V24.2133H83.2736L80.7776 20.6933H79.9616V24.2133H81.2896V24.5333H76.4256V24.2133ZM88.3338 15.0773V24.2133H90.7018V24.5333H86.3018V24.2133H87.9978V14.6453L87.1978 13.6533H85.8217V13.3333H90.0138L96.1578 21.3013V13.6533H94.1098V13.3333H98.1898V13.6533H96.4938V25.2053H96.2378L88.3338 15.0773ZM106.359 24.1813C106.082 24.288 105.703 24.3893 105.223 24.4853C104.946 24.5493 104.663 24.5973 104.375 24.6293C104.098 24.672 103.815 24.6933 103.527 24.6933C102.674 24.6933 101.906 24.5227 101.223 24.1813C100.541 23.8293 100.013 23.3387 99.6394 22.7093C99.266 22.0693 99.0794 21.344 99.0794 20.5333C99.0794 19.7333 99.2607 19.0187 99.6234 18.3893C99.986 17.7493 100.487 17.2533 101.127 16.9013C101.778 16.5493 102.514 16.3733 103.335 16.3733C104.178 16.3733 104.914 16.5493 105.543 16.9013C106.173 17.2427 106.658 17.728 106.999 18.3573C107.351 18.976 107.538 19.696 107.559 20.5173C107.559 20.5387 107.559 20.5653 107.559 20.5973C107.559 20.6293 107.559 20.6613 107.559 20.6933H101.239C101.25 21.4827 101.346 22.16 101.527 22.7253C101.719 23.2907 101.975 23.7173 102.295 24.0053C102.615 24.2933 102.978 24.4373 103.383 24.4373C103.767 24.4373 104.194 24.2987 104.663 24.0213C105.143 23.744 105.549 23.408 105.879 23.0133C106.221 22.608 106.391 22.2453 106.391 21.9253V21.6693H106.679V25.2213H106.359V24.1813ZM105.415 20.3733C105.405 19.5413 105.314 18.848 105.143 18.2933C104.983 17.728 104.749 17.312 104.439 17.0453C104.141 16.768 103.773 16.6293 103.335 16.6293C102.909 16.6293 102.541 16.7787 102.231 17.0773C101.922 17.3653 101.682 17.792 101.511 18.3573C101.341 18.912 101.25 19.584 101.239 20.3733H105.415ZM108.826 21.2533H109.114V21.6853C109.114 22.0693 109.349 22.464 109.818 22.8693C110.298 23.2747 110.906 23.616 111.642 23.8933C112.389 24.16 113.12 24.2933 113.834 24.2933C114.304 24.2933 114.672 24.208 114.938 24.0373C115.216 23.856 115.354 23.6107 115.354 23.3013C115.354 23.12 115.29 22.9547 115.162 22.8053C115.045 22.656 114.816 22.512 114.474 22.3733C114.133 22.224 113.648 22.0693 113.018 21.9093C111.984 21.632 111.168 21.344 110.57 21.0453C109.984 20.736 109.557 20.3947 109.29 20.0213C109.034 19.648 108.906 19.1947 108.906 18.6613C108.906 17.9467 109.168 17.3867 109.69 16.9813C110.213 16.576 110.944 16.3733 111.882 16.3733C112.341 16.3733 112.752 16.4053 113.114 16.4693C113.477 16.5227 113.845 16.608 114.218 16.7253C114.453 16.7893 114.725 16.8853 115.034 17.0133V15.7013H115.354V19.5253H115.05V19.1413C115.05 18.8 114.81 18.448 114.33 18.0853C113.85 17.7227 113.274 17.424 112.602 17.1893C111.941 16.9547 111.376 16.8373 110.906 16.8373C110.522 16.8373 110.218 16.9227 109.994 17.0933C109.77 17.264 109.658 17.4827 109.658 17.7493C109.658 18.048 109.776 18.304 110.01 18.5173C110.245 18.72 110.682 18.9333 111.322 19.1573C111.482 19.2107 111.648 19.264 111.818 19.3173C112 19.3707 112.186 19.4293 112.378 19.4933C112.453 19.5147 112.533 19.536 112.618 19.5573C112.704 19.5787 112.784 19.6053 112.858 19.6373C113.722 19.904 114.389 20.1707 114.858 20.4373C115.328 20.6933 115.653 20.9707 115.834 21.2693C116.016 21.568 116.106 21.9253 116.106 22.3413C116.106 23.1093 115.856 23.696 115.354 24.1013C114.864 24.5067 114.133 24.7093 113.162 24.7093C112.896 24.7093 112.592 24.6933 112.25 24.6613C111.909 24.64 111.557 24.6027 111.194 24.5493C110.245 24.432 109.562 24.3093 109.146 24.1813V25.2213H108.826V21.2533ZM120.961 24.6933C120.097 24.6933 119.42 24.4533 118.929 23.9733C118.439 23.4933 118.193 22.832 118.193 21.9893V16.8533H116.673V16.5333H118.049C118.583 16.5333 119.025 16.3787 119.377 16.0693C119.74 15.7493 119.921 15.264 119.921 14.6133V13.9413H120.241V16.5333H123.169V16.8533H120.241V22.5493C120.241 23.104 120.38 23.5253 120.657 23.8133C120.935 24.1013 121.319 24.2453 121.809 24.2453C122.076 24.2453 122.359 24.1813 122.657 24.0533C122.967 23.9253 123.191 23.776 123.329 23.6053V24.0213C123.105 24.2133 122.78 24.3733 122.353 24.5013C121.927 24.6293 121.463 24.6933 120.961 24.6933Z" fill="black"/>
</svg>
